<svg xmlns="http://www.w3.org/2000/svg" width="512" height="512" viewBox="0 0 512 512" fill="none"><metadata><rdf:RDF xmlns:rdf="http://www.w3.org/1999/02/22-rdf-syntax-ns#" xmlns:dc="http://purl.org/dc/elements/1.1/"><rdf:Description><dc:creator>RealFaviconGenerator</dc:creator><dc:source>https://realfavicongenerator.net</dc:source></rdf:Description></rdf:RDF></metadata><rect width="512" height="512" fill="#EAF8FF"></rect><path d="M109.487 283.825L105.802 299.218L68.7295 159.492H76.751L109.487 283.825ZM117.617 253.799L113.606 268.758L84.8809 159.492H92.7939L117.617 253.799ZM125.747 222.688L121.628 237.864L100.924 159.492H109.054L125.747 222.688ZM156.641 339H148.511L195.989 159.709L195.881 159.492H204.119V159.709L225.257 232.553L244.66 159.492H252.79L205.203 339H197.073L175.827 266.265L156.641 339ZM140.381 339H132.359L179.838 159.492H187.859L140.381 339ZM124.229 339H116.208L163.795 159.492H171.708L124.229 339ZM253.766 339H245.636L293.114 159.492H301.244L253.766 339ZM237.506 339H229.484L276.963 159.492H284.984L237.506 339ZM221.354 339H213.333L260.92 159.492H268.833L221.354 339ZM104.067 323.607L147.535 159.492H155.665L108.078 339H99.9482L52.4697 159.492H60.5996L104.067 323.607ZM179.946 250.98L200.976 324.258L205.095 308.757L183.957 235.696L179.946 250.98ZM187.968 220.412L209.105 293.473L213.225 278.188L192.087 205.02L187.968 220.412ZM195.989 190.061L217.235 263.121L221.246 247.729L200.217 174.451L195.989 190.061ZM355.118 339H347.313V159.492H355.118V339ZM339.509 339H331.704V159.492H339.509V339ZM323.899 339H316.095V159.492H323.899V339ZM370.728 299.977H453.761V307.781H370.728V315.586H453.761V323.391H370.728V331.195H453.761V339H362.923V159.492H453.761V167.297H370.728V175.102H453.761V182.906H370.728V190.711H453.761V198.516H370.728V229.734H413.328V237.539H370.728V245.344H413.328V253.148H370.728V260.953H413.328V268.758H370.728V299.977Z" fill="#FF0606"></path></svg>